<svg width="13" height="13" xmlns="http://www.w3.org/2000/svg" xmlns:xlink="http://www.w3.org/1999/xlink" xml:space="preserve" overflow="hidden"><g><g><path d="M1.98047 8.62184C1.88751 8.46071 1.68152 8.40545 1.52039 8.49841 1.35926 8.59138 1.304 8.79736 1.39696 8.95849L2.07025 10.1254C2.16317 10.2866 2.36922 10.342 2.53046 10.2491 2.6917 10.1562 2.74709 9.95011 2.65417 9.78887Z" fill="#4CAADB" fill-rule="nonzero" fill-opacity="1"/><path d="M6.90625 9.30638 5.34652 9.75515 4.97629 9.3512 7.00754 8.76769ZM10.1833 7.56722 9.4315 6.26559 8.42089 4.51533 7.66919 3.21371C7.60514 3.1078 7.46735 3.07386 7.36144 3.13792 7.34694 3.14669 7.33346 3.15708 7.3213 3.16889L2.20485 8.10577 3.21466 9.85617 4.4938 9.49704 5.06607 10.1141C5.15148 10.2066 5.28038 10.2453 5.40258 10.2152L7.09692 9.73267C7.1194 9.72143 7.15298 9.71032 7.17546 9.69908 7.25832 9.65108 7.31579 9.56899 7.33254 9.4747L7.48962 8.64432 10.059 7.91497C10.1849 7.86511 10.2465 7.72266 10.1966 7.59681 10.1926 7.58665 10.1879 7.57675 10.1825 7.56722Z" fill="#4CAADB" fill-rule="nonzero" fill-opacity="1"/><path d="M10.0431 4.40403 11.3934 3.64457 11.6589 4.11668 10.3087 4.87614Z" fill="#4CAADB" fill-rule="nonzero" fill-opacity="1"/><path d="M10.2708 5.86929 10.4169 5.34768 11.9087 5.76535 11.7626 6.28696Z" fill="#4CAADB" fill-rule="nonzero" fill-opacity="1"/><path d="M9.16558 3.93134 9.58351 2.43961 10.1051 2.58574 9.68716 4.07747Z" fill="#4CAADB" fill-rule="nonzero" fill-opacity="1"/></g></g></svg>