<svg width="16" height="16" xmlns="http://www.w3.org/2000/svg" xmlns:xlink="http://www.w3.org/1999/xlink" xml:space="preserve" overflow="hidden"><g><g><g><g><g><path d="M12.2656 2.73438 12.1094 1.32812 10.3906 3.04688 10.4844 3.85938 7.98438 6.35938C7.76562 6.25 7.51562 6.17188 7.25 6.17188 6.39062 6.17188 5.6875 6.875 5.6875 7.73438 5.6875 8.59375 6.39062 9.29688 7.25 9.29688 8.10938 9.29688 8.8125 8.59375 8.8125 7.73438 8.8125 7.46875 8.75 7.23438 8.64062 7.01562L11.1406 4.51562 11.9531 4.60938 13.6719 2.89062 12.2656 2.73438Z" fill="#4CAADB" fill-rule="nonzero" fill-opacity="1"/><path d="M12.3906 5.04688 12.1875 5.26562 11.8906 5.23438 11.5625 5.1875C12 5.9375 12.2656 6.79688 12.2656 7.73438 12.2656 10.4844 10.0156 12.7344 7.26562 12.7344 4.51562 12.7344 2.26562 10.4844 2.26562 7.73438 2.26562 4.98438 4.51562 2.73438 7.26562 2.73438 8.1875 2.73438 9.0625 2.98438 9.8125 3.4375L9.78125 3.125 9.73438 2.8125 9.95312 2.59375 10.0625 2.48438C9.21875 2.04688 8.28125 1.79688 7.26562 1.79688 3.98438 1.79688 1.32812 4.45312 1.32812 7.73438 1.32812 11.0156 3.98438 13.6719 7.26562 13.6719 10.5469 13.6719 13.2031 11.0156 13.2031 7.73438 13.2031 6.71875 12.9531 5.78125 12.5 4.95312L12.3906 5.04688Z" fill="#4CAADB" fill-rule="nonzero" fill-opacity="1"/><path d="M9.875 6.67188C10.0156 7 10.0781 7.35938 10.0781 7.73438 10.0781 9.28125 8.8125 10.5469 7.26562 10.5469 5.71875 10.5469 4.45312 9.28125 4.45312 7.73438 4.45312 6.1875 5.71875 4.92188 7.26562 4.92188 7.64062 4.92188 8 5 8.32812 5.125L9.03125 4.42188C8.5 4.14062 7.90625 3.98438 7.26562 3.98438 5.20312 3.98438 3.51562 5.67188 3.51562 7.73438 3.51562 9.79688 5.20312 11.4844 7.26562 11.4844 9.32812 11.4844 11.0156 9.79688 11.0156 7.73438 11.0156 7.09375 10.8594 6.5 10.5781 5.96875L9.875 6.67188Z" fill="#4CAADB" fill-rule="nonzero" fill-opacity="1"/></g></g></g></g></g></svg>